<?xml version="1.0" encoding="utf-8"?>
<!-- Generator: Adobe Illustrator 27.7.0, SVG Export Plug-In . SVG Version: 6.00 Build 0)  -->
<svg version="1.1" id="Ebene_1" xmlns="http://www.w3.org/2000/svg" xmlns:xlink="http://www.w3.org/1999/xlink" x="0px" y="0px"
	 viewBox="0 0 480 480" style="enable-background:new 0 0 480 480;" xml:space="preserve">
<style type="text/css">
	.st0{fill:#494848;}
</style>
<path image-rendering="auto" shape-rendering="auto" color-rendering="auto" class="st0" d="M165,113.2l-27,27l11,11
	c-21.4,10.1-41.4,24-59.1,41.7l27.3,27.3c17.9-17.9,38.9-31.2,61.2-39.6l30.9,30.9c-23.8,5.5-46.3,17.5-64.8,36l27.3,27.3
	c19.9-19.9,46.5-29.3,72.7-28.1l70.5,70.5l27-27l-24.6-24.6l18.1-18.1c-20.8-20.8-46.8-33.4-73.9-37.8L222,170.2
	c50.1-5.2,102.1,11.5,140.6,49.9l27.3-27.3c-41.4-41.4-95.7-62.1-150-62.1c-17.2,0-34.4,2.1-51.2,6.2L165,113.2L165,113.2z
	 M240,134.7c52.1,0,104.1,19.5,144.4,58.3l-21.8,21.8c-39.8-38.1-93-54.1-144-47.9l-26.6-26.6C207.8,136.5,223.9,134.7,240,134.7
	L240,134.7z M152,154.2l23.5,23.5c-21,8.2-40.9,20.6-58.1,37.1L95.5,193C112.6,176.6,131.7,163.6,152,154.2L152,154.2z M266.3,214.5
	c23.1,4.7,45.2,15.7,63.6,33l-15.3,15.3L266.3,214.5L266.3,214.5z M212.6,214.8l28,28c-24.7-0.1-49.3,8.7-68.7,26.6L150,247.5
	C168.1,230.5,189.8,219.6,212.6,214.8L212.6,214.8z M240,285c-14.8,0-29.6,5.6-41,17l40.9,40.9l40.9-40.9
	C269.6,290.8,254.9,285,240,285L240,285z M240,288.9c12.6,0,25.2,4.4,35.3,13.3L240,337.5l-35.3-35.3
	C214.9,293.3,227.5,288.9,240,288.9L240,288.9z"/>
</svg>
